<svg width="152" height="139" viewBox="0 0 152 139" fill="none" xmlns="http://www.w3.org/2000/svg">
<path d="M76 69.5C76 31.1162 107.116 0 145.5 0H152V0C152 38.3838 120.884 69.5 82.5 69.5H76V69.5Z" fill="#091C5C"/>
<path d="M76 69.5H81.9758C120.36 69.5 151.476 100.616 151.476 139V139H145.5C107.116 139 76 107.884 76 69.5V69.5Z" fill="#A39B27"/>
<path d="M76 69.5C76 31.1162 44.8838 0 6.5 0H0V0C0 38.3838 31.1162 69.5 69.5 69.5H76V69.5Z" fill="#A39B27"/>
<path d="M76 69.5H70.0242C31.6404 69.5 0.524139 100.616 0.524139 139V139H6.49998C44.8838 139 76 107.884 76 69.5V69.5Z" fill="#091C5C"/>
</svg>
